# xmcd
#
# Track frame offsets:
#	150
#	16471
#	30583
#	44665
#	58231
#	72402
#	89963
#	107976
#	122790
#	140199
#	155471
#	169565
#	184887
#	200392
#	216093
#	233285
#	246609
#	260188
#	274119
#	289758
#	305372
#	315001
#	329295
#
# Disc length: 4631 seconds
#
# Revision: 0
# Processed by: cddbd v1.5.2PL0 Copyright (c) Steve Scherf et al.
# Submitted via: dBpowerAMP V4.0
#
DISCID=64121517
DTITLE=Various Artist - ERG Nu Country Traxx Vol. 228 CAN
DYEAR=2013
DGENRE=Country
TTITLE0=Lady Antebellum - Goodbye Town
TTITLE1=Lee Brice - Parking Lot Party
TTITLE2=Dallas Smith - Nothing But Summer
TTITLE3=Chris Young - Aw Naw
TTITLE4=Bobby Wills - If It Was That Easy
TTITLE5=Jason Blaine - Rock It Country Girl
TTITLE6=Trace Adkins ft. Colbie Caillat - Watch The World End
TTITLE7=Dean Brody - Dirt
TTITLE8=Belle Starr - New Girl Now
TTITLE9=Tebey - Till It's Gone
TTITLE10=Thomas Rhett  - It Goes Like This
TTITLE11=Jake Mathews - Beer Necessities
TTITLE12=Hayley - Sounds Like A Love Song
TTITLE13=Joe Nichols - Sunny And 75
TTITLE14=Love And Theft - If You Ever Get Lonely
TTITLE15=Tracy Lawrence - Stop Drop And Roll
TTITLE16=Dustin Lynch - Wild In Your Smile
TTITLE17=LoCash Cowboys  - Chase A Little Love
TTITLE18=Jared Ashley - Last Train To Memphis
TTITLE19=Hey Romeo - It's A House
TTITLE20=Lennon And Maisy Stella  - Ho Hey
TTITLE21=Friday Night Satellites - Shoestring
TTITLE22=Marshall Dane  - One Of These Days
EXTD=
EXTT0=
EXTT1=
EXTT2=
EXTT3=
EXTT4=
EXTT5=
EXTT6=
EXTT7=
EXTT8=
EXTT9=
EXTT10=
EXTT11=
EXTT12=
EXTT13=
EXTT14=
EXTT15=
EXTT16=
EXTT17=
EXTT18=
EXTT19=
EXTT20=
EXTT21=
EXTT22=
PLAYORDER=
